<svg width="50" height="51" viewBox="0 0 50 51" fill="none" xmlns="http://www.w3.org/2000/svg">
<g clip-path="url(#clip0_402_326)">
<path d="M25 50.8181C38.8071 50.8181 50 39.6252 50 25.8181C50 12.011 38.8071 0.818115 25 0.818115C11.1929 0.818115 0 12.011 0 25.8181C0 39.6252 11.1929 50.8181 25 50.8181Z" fill="#F0F0F0"/>
<path d="M25 19.2963H49.1388C48.5119 16.9707 47.5592 14.7792 46.3307 12.7745H25V19.2963Z" fill="#338AF3"/>
<path d="M9.43777 45.3834H40.5621C42.8436 43.5662 44.8003 41.3589 46.3305 38.8616H3.66931C5.19968 41.3588 7.15632 43.5662 9.43777 45.3834V45.3834Z" fill="#338AF3"/>
<path d="M25 0.818115V6.25288H40.5622C36.2917 2.85171 30.8837 0.818115 25 0.818115V0.818115Z" fill="#338AF3"/>
<path d="M25 19.2963H49.1388C48.5119 16.9707 47.5592 14.7792 46.3307 12.7745H25V19.2963Z" fill="#338AF3"/>
<path d="M0 25.8181C0 28.0747 0.300781 30.2604 0.86123 32.3399H49.1389C49.6992 30.2604 50 28.0747 50 25.8181H0Z" fill="#338AF3"/>
<path d="M21.7391 15.4491L18.6858 16.8853L20.3117 19.8423L16.9963 19.2082L16.5761 22.5573L14.267 20.094L11.9576 22.5573L11.5376 19.2082L8.22214 19.8421L9.84792 16.8852L6.7948 15.4491L9.84802 14.013L8.22214 11.056L11.5375 11.6902L11.9577 8.34106L14.267 10.8043L16.5762 8.34106L16.9963 11.6902L20.3118 11.056L18.6859 14.0131L21.7391 15.4491Z" fill="#FFDA44"/>
</g>
<defs>
<clipPath id="clip0_402_326">
<rect width="50" height="50" fill="white" transform="translate(0 0.818115)"/>
</clipPath>
</defs>
</svg>
