<svg width="50" height="51" viewBox="0 0 50 51" fill="none" xmlns="http://www.w3.org/2000/svg">
<g clip-path="url(#clip0_402_326)">
<path d="M0 25.8181C0 36.5671 6.78438 45.7307 16.3042 49.263L18.4782 25.818L16.3042 2.37305C6.78438 5.90547 0 15.0689 0 25.8181Z" fill="#6DA544"/>
<path d="M50 25.8181C50 12.0111 38.807 0.818115 25 0.818115C21.942 0.818115 19.0126 1.36821 16.3042 2.3731V49.2631C19.0126 50.2681 21.942 50.8181 25 50.8181C38.807 50.8181 50 39.6251 50 25.8181Z" fill="#D80027"/>
<path d="M16.3044 34.5138C21.1068 34.5138 25 30.6206 25 25.8182C25 21.0157 21.1068 17.1226 16.3044 17.1226C11.5019 17.1226 7.60876 21.0157 7.60876 25.8182C7.60876 30.6206 11.5019 34.5138 16.3044 34.5138Z" fill="#FFDA44"/>
<path d="M11.4131 21.4702V26.905C11.4131 29.6063 13.6029 31.7963 16.3044 31.7963C19.0059 31.7963 21.1957 29.6064 21.1957 26.905V21.4702H11.4131Z" fill="#D80027"/>
<path d="M16.3044 28.5355C15.4054 28.5355 14.674 27.8041 14.674 26.905V24.7312H17.9348V26.9051C17.9348 27.8041 17.2033 28.5355 16.3044 28.5355Z" fill="#F0F0F0"/>
</g>
<defs>
<clipPath id="clip0_402_326">
<rect width="50" height="50" fill="white" transform="translate(0 0.818115)"/>
</clipPath>
</defs>
</svg>
