<svg width="50" height="51" viewBox="0 0 50 51" fill="none" xmlns="http://www.w3.org/2000/svg">
<g clip-path="url(#clip0_402_326)">
<path d="M25 50.8181C38.8071 50.8181 50 39.6252 50 25.8181C50 12.011 38.8071 0.818115 25 0.818115C11.1929 0.818115 0 12.011 0 25.8181C0 39.6252 11.1929 50.8181 25 50.8181Z" fill="#6DA544"/>
<path d="M14.1304 30.7095C14.1304 32.5104 15.5904 33.9703 17.3913 33.9703H27.1739C27.1739 35.4711 28.3905 36.6877 29.8913 36.6877H33.1521C34.6529 36.6877 35.8695 35.4711 35.8695 33.9703V30.7095H14.1304Z" fill="#F0F0F0"/>
<path d="M36.1413 14.9486V22.5573C36.1413 23.756 35.1661 24.7312 33.9673 24.7312V27.9921C36.9641 27.9921 39.4021 25.554 39.4021 22.5573V14.9486H36.1413Z" fill="#F0F0F0"/>
<path d="M12.7718 22.5573C12.7718 23.756 11.7966 24.7312 10.5978 24.7312V27.9921C13.5946 27.9921 16.0326 25.554 16.0326 22.5573V14.9486H12.7718V22.5573Z" fill="#F0F0F0"/>
<path d="M31.25 14.9486H34.5108V22.5573H31.25V14.9486Z" fill="#F0F0F0"/>
<path d="M26.3587 19.2963C26.3587 19.596 26.1148 19.8398 25.8152 19.8398C25.5156 19.8398 25.2718 19.5959 25.2718 19.2963V14.9485H22.0109V19.2963C22.0109 19.596 21.7671 19.8398 21.4675 19.8398C21.1679 19.8398 20.924 19.5959 20.924 19.2963V14.9485H17.6631V19.2963C17.6631 21.3941 19.3697 23.1007 21.4675 23.1007C22.2754 23.1007 23.0246 22.8468 23.6414 22.4156C24.2581 22.8467 25.0074 23.1007 25.8153 23.1007C25.978 23.1007 26.138 23.0893 26.2953 23.0693C26.0643 24.0213 25.2068 24.7311 24.1849 24.7311V27.9919C27.1816 27.9919 29.6196 25.5539 29.6196 22.5572V19.2963V14.9485H26.3588V19.2963H26.3587Z" fill="#F0F0F0"/>
<path d="M17.6631 24.7312H22.5544V27.992H17.6631V24.7312Z" fill="#F0F0F0"/>
</g>
<defs>
<clipPath id="clip0_402_326">
<rect width="50" height="50" fill="white" transform="translate(0 0.818115)"/>
</clipPath>
</defs>
</svg>
