<svg width="50" height="51" viewBox="0 0 50 51" fill="none" xmlns="http://www.w3.org/2000/svg">
<g clip-path="url(#clip0_402_326)">
<path d="M25 50.8181C38.8071 50.8181 50 39.6252 50 25.8181C50 12.011 38.8071 0.818115 25 0.818115C11.1929 0.818115 0 12.011 0 25.8181C0 39.6252 11.1929 50.8181 25 50.8181Z" fill="#F0F0F0"/>
<path d="M25 0.818115C15.0885 0.818115 6.5244 6.58618 2.48065 14.9486H47.5192C43.4756 6.58618 34.9114 0.818115 25 0.818115V0.818115Z" fill="#338AF3"/>
<path d="M25 50.8181C34.9114 50.8181 43.4756 45.05 47.5193 36.6876H2.48065C6.5244 45.05 15.0885 50.8181 25 50.8181Z" fill="#338AF3"/>
<path d="M32.4722 25.8181L29.4189 27.2543L31.0448 30.2112L27.7294 29.577L27.3093 32.9262L25 30.4629L22.6906 32.9262L22.2706 29.577L18.9552 30.2111L20.581 27.2542L17.5278 25.8181L20.5811 24.3818L18.9552 21.425L22.2705 22.0592L22.6907 18.71L25 21.1732L27.3094 18.71L27.7294 22.0592L31.0449 21.425L29.419 24.3819L32.4722 25.8181Z" fill="#FFDA44"/>
</g>
<defs>
<clipPath id="clip0_402_326">
<rect width="50" height="50" fill="white" transform="translate(0 0.818115)"/>
</clipPath>
</defs>
</svg>
